<svg width="256" height="256" viewBox="0 0 256 256" fill="none" xmlns="http://www.w3.org/2000/svg">
<path fill-rule="evenodd" clip-rule="evenodd" d="M127.967 0C171.163 0 206.756 33.9287 211.934 76H164.543C160.217 76 156.546 77.1969 154.842 81.1659L146.375 100L118.922 38.6315C117.217 34.6625 113.481 32.2811 109.22 32.2811C104.96 32.3473 101.289 34.7948 99.5849 38.7638L88 76H44C49.2439 33.9287 84.8365 0 127.967 0ZM212 96C210.558 107.51 206.887 118.276 201.447 127.934L128 256L54.5533 127.868C49.1128 118.276 45.3765 107.51 44 96H91.3913C95.7175 96 99.4538 93.5359 101.158 89.5008L109.625 68L137.013 132.101C138.783 136.004 142.453 138.452 146.78 138.386C151.04 138.386 154.711 135.872 156.35 131.903L171.557 96H212Z" fill="white"/>
<path d="M174.645 245.078V247.372H176.246C177.105 247.372 177.887 247.227 177.887 246.207C177.887 245.226 177.105 245.078 176.246 245.078H174.645ZM184 248.056C184 252.573 180.641 256 176.02 256C171.507 256 168 252.427 168 248.056C168 243.647 171.507 240 176.02 240C180.532 240 184 243.647 184 248.056ZM169.53 248.056C169.53 251.626 172.327 254.614 176.02 254.614C179.785 254.614 182.509 251.772 182.509 248.056C182.509 244.409 179.673 241.421 176.02 241.421C172.327 241.421 169.53 244.409 169.53 248.056ZM172.922 243.718H176.205C177.474 243.718 179.451 244.083 179.451 246.196C179.451 247.801 178.218 248.383 177.101 248.528L179.97 252.246H178.106L175.385 248.602H174.526V252.246H172.922V243.718Z" fill="white"/>
</svg>
