<svg width="896" height="256" viewBox="0 0 896 256" fill="none" xmlns="http://www.w3.org/2000/svg">
<g clip-path="url(#clip0_1151_3080)">
<path d="M655.98 183.556H651.525V226.799H655.98V210.652C655.98 205.27 659.877 201.929 664.703 201.929C669.899 201.929 672.869 205.27 672.869 210.652V226.799H677.323V209.168C677.323 202.301 672.498 197.661 665.445 197.661C662.104 197.661 658.207 198.96 655.98 202.301V183.556ZM699.594 197.661C691.428 197.661 685.489 203.785 685.489 212.694C685.489 221.417 691.428 227.542 699.78 227.542C704.049 227.542 707.946 226.428 711.472 223.087L709.245 219.932C706.647 222.159 703.677 223.458 700.151 223.458C694.954 223.458 690.686 220.303 689.943 214.179H712.957C712.957 213.622 712.957 213.065 712.957 212.508C712.957 203.785 707.389 197.661 699.594 197.661ZM699.409 201.744C704.42 201.744 707.76 205.27 708.317 210.467H690.129C690.871 205.456 694.212 201.744 699.409 201.744ZM748.405 198.403H743.951V202.486C741.539 199.702 738.198 197.661 733.372 197.661C725.392 197.661 719.267 203.971 719.267 212.508C719.267 221.231 725.392 227.542 733.372 227.542C738.198 227.542 741.539 225.5 743.951 222.716V226.799H748.405V198.403ZM733.929 201.929C739.868 201.929 744.137 206.569 744.137 212.508C744.137 218.633 739.868 223.273 733.929 223.273C727.99 223.273 723.721 218.447 723.721 212.508C723.721 206.755 727.805 201.929 733.929 201.929ZM763.439 183.556H758.984V226.799H763.439V183.556ZM793.319 198.403H781.07V189.309H776.43V198.403H770.306V202.486H776.43V216.963C776.43 224.015 780.142 227.542 786.267 227.542C789.793 227.542 792.577 226.242 794.804 224.572L792.762 221.231C791.092 222.53 788.865 223.273 786.638 223.273C783.297 223.273 781.07 221.231 781.07 216.777V202.486H793.319V198.403ZM805.754 183.556H801.3V226.799H805.754V210.652C805.754 205.27 809.652 201.929 814.477 201.929C819.674 201.929 822.643 205.27 822.643 210.652V226.799H827.283V209.168C827.283 202.301 822.458 197.661 815.405 197.661C811.879 197.661 808.167 198.96 805.754 202.301V183.556Z" fill="#272564"/>
<path d="M844.645 217.078V219.372H846.246C847.105 219.372 847.887 219.227 847.887 218.207C847.887 217.226 847.105 217.078 846.246 217.078H844.645ZM854 220.056C854 224.573 850.641 228 846.02 228C841.507 228 838 224.427 838 220.056C838 215.647 841.507 212 846.02 212C850.532 212 854 215.647 854 220.056ZM839.53 220.056C839.53 223.626 842.327 226.614 846.02 226.614C849.785 226.614 852.509 223.771 852.509 220.056C852.509 216.409 849.673 213.421 846.02 213.421C842.327 213.421 839.53 216.409 839.53 220.056ZM842.922 215.718H846.205C847.474 215.718 849.451 216.083 849.451 218.196C849.451 219.801 848.218 220.383 847.101 220.528L849.97 224.246H848.106L845.385 220.602H844.526V224.246H842.922V215.718Z" fill="#272564"/>
<path d="M287.095 78.2098C275.34 72.4256 264.145 69.8134 249.964 69.8134C226.641 69.8134 212.46 80.4488 212.46 98.7343C212.46 113.661 222.722 122.804 243.247 125.603L250.524 126.536C260.786 128.028 265.264 130.454 265.264 134.745C265.264 139.783 259.853 142.955 248.844 142.955C235.41 142.955 226.081 139.224 218.617 134.372L209.102 152.471C220.67 160.494 236.53 162.92 248.658 162.92C274.407 162.92 289.334 150.979 289.334 132.693C289.334 117.766 278.698 109.183 259.48 106.198L251.643 105.078C243.433 103.959 237.09 102.653 237.09 97.6148C237.09 92.7635 241.568 89.5916 250.71 89.5916C260.786 89.5916 271.981 93.1367 279.072 96.6819L287.095 78.2098ZM352.773 69.6268C340.645 69.6268 332.062 74.4781 326.278 81.7549V71.8659H302.955V197.252H326.838V151.352C332.622 158.255 341.018 162.92 352.96 162.92C377.403 162.92 395.875 142.769 395.875 116.273C395.875 89.5916 377.403 69.6268 352.773 69.6268ZM348.482 91.8306C362.476 91.8306 371.245 102.653 371.245 116.273C371.245 129.708 362.476 140.53 348.482 140.53C334.861 140.53 325.718 130.267 325.718 116.273C325.718 102.279 334.861 91.8306 348.482 91.8306ZM458.008 69.6268C447.186 69.6268 438.603 73.3585 433.192 81.7549V71.8659H409.869V160.681H433.752V112.355C433.752 99.1075 441.402 92.3904 452.597 92.3904C457.448 92.3904 463.046 93.5099 466.964 95.1892L470.509 71.4927C467.151 70.3732 463.232 69.6268 458.008 69.6268ZM505.401 71.8659H481.518V160.681H505.401V71.8659ZM493.459 28C484.876 28 478.159 34.7093 478.159 43.2923C478.159 52.0618 484.876 58.6053 493.459 58.6053C502.042 58.6053 508.759 52.0618 508.759 43.2923C508.759 34.7093 502.042 28 493.459 28ZM574.625 69.6268C564.549 69.6268 554.846 72.9854 548.502 82.5013V71.8659H525.366V160.681H549.249V111.982C549.249 98.7343 557.832 92.0172 568.094 92.0172C578.916 92.0172 585.26 99.1075 585.26 111.982V160.681H609.33V104.145C609.33 83.6208 594.776 69.6268 574.625 69.6268ZM691.801 71.8659H659.708V45.5572H635.825V71.8659H618.659V93.1367H635.825V127.469C635.825 150.419 647.02 162.92 669.037 162.92C681.539 162.92 690.681 158.815 698.331 153.591L689.562 134.745C684.711 137.731 678.553 140.53 672.956 140.53C665.492 140.53 659.708 136.611 659.708 125.416V93.1367H691.801V71.8659ZM745.724 69.6268C719.229 69.6268 700.944 88.6586 700.944 116.647C700.944 144.448 719.789 162.92 747.031 162.92C761.957 162.92 774.645 158.629 784.721 149.486L770.727 134.186C764.383 139.41 755.987 142.582 748.337 142.582C737.141 142.582 728.185 136.985 725.573 124.297H788.453C788.639 122.244 788.826 118.886 788.826 116.273C788.826 88.4721 771.287 69.6268 745.724 69.6268ZM745.538 90.1513C755.8 90.1513 762.704 96.6819 764.943 108.064H725.573C727.812 97.055 734.343 90.1513 745.538 90.1513ZM851.332 69.6268C840.324 69.6268 831.927 73.3585 826.33 81.7549V71.8659H803.193V160.681H827.076V112.355C827.076 99.1075 834.54 92.3904 845.735 92.3904C850.586 92.3904 856.184 93.5099 860.102 95.1892L863.647 71.4927C860.475 70.3732 856.37 69.6268 851.332 69.6268Z" fill="#272564"/>
<path fill-rule="evenodd" clip-rule="evenodd" d="M98.9744 28C132.721 28 160.528 54.5068 164.574 87.375H127.549C124.169 87.375 121.302 88.3101 119.97 91.4109L113.355 106.125L91.9075 58.1809C90.576 55.0801 87.6571 53.2196 84.3285 53.2196C80.9999 53.2713 78.1321 55.1835 76.8007 58.2842L67.75 87.375H33.375C37.4718 54.5068 65.2785 28 98.9744 28ZM164.625 103C163.498 111.992 160.631 120.403 156.38 127.948L99 228L41.6197 127.897C37.3693 120.403 34.4504 111.992 33.375 103H70.3995C73.7793 103 76.6983 101.075 78.0297 97.9225L84.6445 81.125L106.041 131.204C107.424 134.253 110.292 136.165 113.672 136.114C117 136.114 119.868 134.15 121.148 131.049L133.029 103H164.625Z" fill="#5D4B9F"/>
</g>
<defs>
<clipPath id="clip0_1151_3080">
<rect width="896" height="256" fill="white"/>
</clipPath>
</defs>
</svg>
